<svg id="_x33_0" enable-background="new 0 0 62 62.302" height="512" viewBox="0 0 62 62.302" width="512" xmlns="http://www.w3.org/2000/svg"><g><g><g><path d="m32 53 3 8h-8l3-8z" fill="#ff826e"/></g><g><path d="m33.2 51.2-1.2 1.8h-2l-1.2-1.8 2.2-2.2z" fill="#fc6e51"/></g><g><path d="m35 53 1.8-4.2c.24-.06.48-.13.71-.2 4.17 2.19 7.1 6.44 7.45 11.4.03.33.04.66.04 1h-6-4l-3-8 1.2-1.8z" fill="#e6e9ed"/></g><g><path d="m27 53 1.8-1.8 1.2 1.8-3 8h-4-6c0-5.38 3.04-10.06 7.5-12.4.23.08.46.14.7.2z" fill="#e6e9ed"/></g><g><path d="m35 49c.62 0 1.22-.07 1.8-.2l-1.8 4.2-1.8-1.8-2.2-2.2z" fill="#ccd1d9"/></g><g><path d="m28.8 51.2-1.8 1.8-1.8-4.2c.58.13 1.18.2 1.8.2h4z" fill="#ccd1d9"/></g><g><path d="m61 50v5h-8-8v-5c0-.55.45-1 1-1h3 8 3c.55 0 1 .45 1 1z" fill="#d3a06c"/></g><g><path d="m60 61h-14c-.55 0-1-.45-1-1v-5h8 8v5c0 .55-.45 1-1 1z" fill="#cf9e76"/></g><g><path d="m46.93 20.14c.05-.37.07-.75.07-1.14v-1c0-.55-.45-1-1-1h-3c-1.26-1.67-2-3.75-2-6 0-5.52 4.48-10 10-10s10 4.48 10 10c0 4.83-3.44 8.87-8 9.8-.64.13-1.31.2-2 .2-1.45 0-2.82-.31-4.06-.86z" fill="#fcd770"/></g><g><path d="m44 33c.9 0 1.7.39 2.24 1.02.47.53.76 1.22.76 1.98 0 .83-.34 1.58-.88 2.12s-1.29.88-2.12.88h-1v-6z" fill="#f0d0b4"/></g><g><path d="m43 41c0 3.54-2.3 6.55-5.49 7.6-.23.07-.47.14-.71.2-.58.13-1.18.2-1.8.2h-4-4c-.62 0-1.22-.07-1.8-.2-.24-.06-.47-.12-.7-.2-3.2-1.05-5.5-4.05-5.5-7.6v-2-6-2c0-2.21 1.79-4 4-4h.17.01c.4 1.17 1.51 2 2.82 2h11c1.63 0 3.18-.39 4.54-1.09.89.73 1.46 1.85 1.46 3.09v2 6z" fill="#f0d0b4"/></g><g><path d="m19 33v6h-1c-.83 0-1.58-.34-2.12-.88s-.88-1.29-.88-2.12c0-.86.36-1.64.95-2.19.53-.5 1.25-.81 2.05-.81z" fill="#f0d0b4"/></g><g><path d="m46.72 32.12-.47 1.89-.01.01c-.54-.63-1.34-1.02-2.24-1.02h-1v-2c0-1.24-.57-2.36-1.46-3.09 1.54-.79 2.85-1.96 3.8-3.4l.08.12c1.03 1.55 1.58 3.36 1.58 5.21 0 .77-.09 1.54-.28 2.28z" fill="#b27946"/></g><g><path d="m46 17c.55 0 1 .45 1 1v1c0 .39-.02.77-.07 1.14-.18 1.6-.74 3.09-1.59 4.37-.95 1.44-2.26 2.61-3.8 3.4-1.36.7-2.91 1.09-4.54 1.09h-11c-1.31 0-2.42-.83-2.82-2h-.01-.17c-2.21 0-4 1.79-4 4v2h-1c-.8 0-1.52.31-2.05.81l-.6-2.43c-.23-.92-.35-1.86-.35-2.8 0-3.2 1.3-6.1 3.39-8.19s4.99-3.39 8.19-3.39h16.42z" fill="#b27946"/></g><g><circle cx="37" cy="35" fill="#d3a06c" r="2"/></g><g><circle cx="25" cy="35" fill="#d3a06c" r="2"/></g><g><path d="m27 41h8c0 1.1-.45 2.1-1.17 2.83-.73.72-1.73 1.17-2.83 1.17-2.21 0-4-1.79-4-4z" fill="#ff826e"/></g><g><path d="m13 54.41c0 .2-.02.4-.05.59-.14.78-.55 1.5-1.17 2.02l-4.78 3.98-4.78-3.98c-.77-.65-1.22-1.6-1.22-2.61 0-.9.36-1.77 1-2.41s1.51-1 2.41-1h.18c.9 0 1.77.36 2.41 1 .64-.64 1.51-1 2.41-1h.18c.9 0 1.77.36 2.41 1s1 1.51 1 2.41z" fill="#ff826e"/></g><g><path d="m9 19v3c0 .55-.45 1-1 1h-1-1c-.55 0-1-.45-1-1v-3z" fill="#ccd1d9"/></g><g><path d="m5 9h4v6h-4z" fill="#ccd1d9"/></g><g><path d="m9 2v3h-4v-3c0-.55.45-1 1-1h2c.55 0 1 .45 1 1z" fill="#ccd1d9"/></g><g><path d="m13 6v2c0 .55-.45 1-1 1h-3-4-3c-.55 0-1-.45-1-1v-2c0-.55.45-1 1-1h3 4 3c.55 0 1 .45 1 1z" fill="#aab2bd"/></g><g><path d="m13 16v2c0 .55-.45 1-1 1h-3-4-3c-.55 0-1-.45-1-1v-2c0-.55.45-1 1-1h3 4 3c.55 0 1 .45 1 1z" fill="#aab2bd"/></g></g><g><path d="m60 48h-2v-1c0-1.654-1.346-3-3-3h-1v-22.426c4.61-1.31 8-5.549 8-10.574 0-6.065-4.935-11-11-11s-11 4.935-11 11c0 1.764.414 3.463 1.202 5h-14.627c-6.933 0-12.575 5.642-12.575 12.575 0 1.026.126 2.052.376 3.05l.482 1.929c-.529.678-.858 1.52-.858 2.446 0 2.206 1.794 4 4 4v1c0 3.278 1.767 6.144 4.394 7.718-1.976 1.382-3.564 3.198-4.662 5.282h-3.773c-.097-1.012-.526-1.982-1.252-2.707-.834-.834-1.942-1.293-3.121-1.293h-.172c-.489 0-.963.087-1.414.239v-26.239c1.103 0 2-.897 2-2v-2h2c1.103 0 2-.897 2-2v-2c0-1.103-.897-2-2-2h-2v-4h2c1.103 0 2-.897 2-2v-2c0-1.103-.897-2-2-2h-2v-2c0-1.103-.897-2-2-2h-2c-1.103 0-2 .897-2 2v2h-2c-1.103 0-2 .897-2 2v2c0 1.103.897 2 2 2h2v4h-2c-1.103 0-2 .897-2 2v2c0 1.103.897 2 2 2h2v2c0 1.103.897 2 2 2v26.239c-.451-.152-.925-.239-1.415-.239h-.171c-1.179 0-2.287.459-3.126 1.298-.818.818-1.288 1.952-1.288 3.11 0 1.309.576 2.54 1.583 3.38l5.417 4.514 5.418-4.515c.579-.483.995-1.104 1.262-1.787h3.175c-.557 1.579-.854 3.265-.854 5v1h29.999.001 13.999c1.103 0 2-.897 2-2v-10c0-1.103-.897-2-2-2zm-54-46h2v2h-2zm-4 4h10l.002 2h-10.002zm4 4h2v4h-2zm-4 6h10v2h-10zm6 4v2h-2v-2zm3.138 36.251-4.138 3.447-4.137-3.446c-.549-.458-.863-1.13-.863-1.844 0-.632.256-1.25.707-1.701.456-.456 1.063-.707 1.707-.707h.171c.646 0 1.252.251 1.708.707l.707.707.707-.707c.456-.456 1.063-.707 1.707-.707h.172c.645 0 1.251.251 1.712.712.446.446.702 1.064.702 1.696 0 .714-.314 1.386-.862 1.843zm48.863-2.251h-14.001v-4h14zm-4.001-7v1h-6v-1c0-.552.448-1 1-1h4c.552 0 1 .448 1 1zm-4-3h-1c-1.654 0-3 1.346-3 3v1h-2c-1.103 0-2 .897-2 2v3.517c-1.083-1.882-2.571-3.526-4.392-4.8 2.625-1.574 4.392-4.439 4.392-7.717v-1c2.206 0 4-1.794 4-4 0-.815-.248-1.573-.668-2.206l.357-1.429c.207-.822.311-1.671.311-2.521 0-1.889-.531-3.712-1.498-5.328.542-.931.951-1.946 1.202-3.023 1.062.334 2.165.507 3.296.507.338 0 .67-.021 1-.051zm-24.663 7.248-.539-1.258c.068.001.134.01.202.01h1.585zm3.356 2.752h.613l2.25 6h-5.113zm.772-2h-.93l-.448-.672.913-.914.913.913zm1.95-2h1.585c.068 0 .134-.009.202-.01l-.539 1.258zm11.796-23.706c.517 1.107.789 2.314.789 3.55 0 .688-.084 1.372-.25 2.036l-.119.476c-.499-.225-1.049-.356-1.631-.356v-1c0-1.036-.324-2.024-.901-2.853.783-.523 1.488-1.151 2.112-1.853zm-1.211 7.706c1.103 0 2 .897 2 2s-.897 2-2 2zm-2-23c0-4.963 4.037-9 9-9s9 4.037 9 9-4.037 9-9 9c-1.044 0-2.056-.185-3.024-.531.007-.157.024-.311.024-.469v-1c0-1.103-.897-2-2-2h-2.477c-.994-1.481-1.523-3.197-1.523-5zm-26 25c0-1.103.897-2 2-2v4c-1.103 0-2-.897-2-2zm2-5v1c-.495 0-.965.102-1.403.267l-.282-1.127c-.209-.839-.315-1.702-.315-2.565 0-5.831 4.744-10.575 10.575-10.575h19.425v1c0 4.963-4.037 9-9 9h-11c-1.103 0-2-.897-2-2s.897-2 2-2v-2c-2.206 0-4 1.794-4 4 0 .034.009.066.01.1-2.284.461-4.01 2.482-4.01 4.9zm2 10v-10c0-1.51 1.125-2.751 2.579-2.957.7 1.166 1.964 1.957 3.421 1.957h11c1.534 0 2.995-.318 4.323-.888.432.53.677 1.19.677 1.888v10c0 3.859-3.141 7-7 7h-8c-3.859 0-7-3.141-7-7zm4.521 8.753 2.142 4.999 1.982-1.982.239.358-2.577 6.872h-2.307v-4h-2v4h-3.961c.326-4.276 2.745-8.091 6.482-10.247zm15.479 10.247v-4h-2v4h-2.307l-2.577-6.872.239-.358 1.982 1.982 2.143-5c3.738 2.157 6.158 5.972 6.483 10.248zm6 0v-4h6v2h2v-2h6.001l.001 4z"/><path d="m50 15.816v2.184h2v-2h2v-3c0-1.654-1.346-3-3-3-.552 0-1-.448-1-1v-1h1c.552 0 1 .448 1 1v1h2v-1c0-1.302-.839-2.402-2-2.816v-2.184h-2v2h-2v3c0 1.654 1.346 3 3 3 .552 0 1 .448 1 1v1h-1c-.552 0-1-.448-1-1v-1h-2v1c0 1.302.839 2.402 2 2.816z"/><path d="m36 10h2v2h-2z"/><path d="m32 10h2v2h-2z"/><path d="m28 10h2v2h-2z"/><path d="m24 10h2v2h-2z"/><path d="m20 10h2v2h-2z"/><path d="m16 10h2v2h-2z"/><path d="m28 35c0-1.654-1.346-3-3-3s-3 1.346-3 3 1.346 3 3 3 3-1.346 3-3zm-3 1c-.552 0-1-.448-1-1s.448-1 1-1 1 .448 1 1-.448 1-1 1z"/><path d="m37 38c1.654 0 3-1.346 3-3s-1.346-3-3-3-3 1.346-3 3 1.346 3 3 3zm0-4c.552 0 1 .448 1 1s-.448 1-1 1-1-.448-1-1 .448-1 1-1z"/><path d="m31 46c2.757 0 5-2.243 5-5v-1h-10v1c0 2.757 2.243 5 5 5zm2.829-4c-.413 1.164-1.525 2-2.829 2s-2.416-.836-2.829-2z"/></g></g></svg>